<svg width="24" height="24" viewBox="0 0 24 24" fill="none" xmlns="http://www.w3.org/2000/svg">
<path d="M13 14C9.64001 14 8.54001 15.35 8.18001 16.24C9.25001 16.7 10 17.76 10 19C10 19.7956 9.68394 20.5587 9.12133 21.1213C8.55872 21.6839 7.79566 22 7.00001 22C6.20436 22 5.4413 21.6839 4.87869 21.1213C4.31608 20.5587 4.00001 19.7956 4.00001 19C4.00001 17.69 4.83001 16.58 6.00001 16.17V7.83C5.41404 7.62439 4.90663 7.24142 4.54822 6.73429C4.18982 6.22715 3.99822 5.621 4.00001 5C4.00001 4.20435 4.31608 3.44129 4.87869 2.87868C5.4413 2.31607 6.20436 2 7.00001 2C7.79566 2 8.55872 2.31607 9.12133 2.87868C9.68394 3.44129 10 4.20435 10 5C10 6.31 9.17001 7.42 8.00001 7.83V13.12C8.88001 12.47 10.16 12 12 12C14.67 12 15.56 10.66 15.85 9.77C15.3029 9.54208 14.8354 9.15753 14.5063 8.66468C14.1771 8.17182 14.001 7.59266 14 7C14 6.20435 14.3161 5.44129 14.8787 4.87868C15.4413 4.31607 16.2044 4 17 4C17.7957 4 18.5587 4.31607 19.1213 4.87868C19.6839 5.44129 20 6.20435 20 7C20 8.34 19.12 9.5 17.91 9.86C17.65 11.29 16.68 14 13 14ZM7.00001 18C6.7348 18 6.48044 18.1054 6.29291 18.2929C6.10537 18.4804 6.00001 18.7348 6.00001 19C6.00001 19.2652 6.10537 19.5196 6.29291 19.7071C6.48044 19.8946 6.7348 20 7.00001 20C7.26523 20 7.51958 19.8946 7.70712 19.7071C7.89466 19.5196 8.00001 19.2652 8.00001 19C8.00001 18.7348 7.89466 18.4804 7.70712 18.2929C7.51958 18.1054 7.26523 18 7.00001 18ZM7.00001 4C6.7348 4 6.48044 4.10536 6.29291 4.29289C6.10537 4.48043 6.00001 4.73478 6.00001 5C6.00001 5.26522 6.10537 5.51957 6.29291 5.70711C6.48044 5.89464 6.7348 6 7.00001 6C7.26523 6 7.51958 5.89464 7.70712 5.70711C7.89466 5.51957 8.00001 5.26522 8.00001 5C8.00001 4.73478 7.89466 4.48043 7.70712 4.29289C7.51958 4.10536 7.26523 4 7.00001 4ZM17 6C16.7348 6 16.4804 6.10536 16.2929 6.29289C16.1054 6.48043 16 6.73478 16 7C16 7.26522 16.1054 7.51957 16.2929 7.70711C16.4804 7.89464 16.7348 8 17 8C17.2652 8 17.5196 7.89464 17.7071 7.70711C17.8947 7.51957 18 7.26522 18 7C18 6.73478 17.8947 6.48043 17.7071 6.29289C17.5196 6.10536 17.2652 6 17 6Z" fill="white"/>
</svg>
