<svg width="137" height="38" viewBox="0 0 137 38" fill="none" xmlns="http://www.w3.org/2000/svg">
<path d="M1.1745 27V14.52C1.1745 12.344 1.95317 10.4773 3.5105 8.92C5.06783 7.36267 6.9345 6.584 9.1105 6.584C11.3078 6.584 13.1745 7.36267 14.7105 8.92C16.2678 10.456 17.0465 12.3227 17.0465 14.52V27H13.6545V14.52C13.6545 13.2827 13.2065 12.216 12.3105 11.32C11.4145 10.424 10.3478 9.976 9.1105 9.976C7.87317 9.976 6.8065 10.424 5.9105 11.32C5.0145 12.216 4.5665 13.2827 4.5665 14.52V27H1.1745ZM21.986 9.592C23.9913 7.58667 26.402 6.584 29.218 6.584C32.034 6.584 34.434 7.58667 36.418 9.592C38.4233 11.576 39.426 13.976 39.426 16.792C39.426 17.3253 39.3727 17.8907 39.266 18.488H22.626C23.01 19.9813 23.81 21.208 25.026 22.168C26.242 23.1067 27.6393 23.576 29.218 23.576C31.202 23.576 32.8553 22.8613 34.178 21.432H38.306C37.4527 23.1173 36.2047 24.472 34.562 25.496C32.9407 26.4987 31.1593 27 29.218 27C26.402 27 23.9913 26.008 21.986 24.024C20.002 22.0187 19.01 19.608 19.01 16.792C19.01 13.976 20.002 11.576 21.986 9.592ZM22.626 15.096H35.81C35.4473 13.6027 34.6473 12.376 33.41 11.416C32.194 10.456 30.7967 9.976 29.218 9.976C27.6393 9.976 26.2313 10.456 24.994 11.416C23.778 12.376 22.9887 13.6027 22.626 15.096ZM43.2575 9.592C45.2628 7.58667 47.6735 6.584 50.4895 6.584C53.3055 6.584 55.7055 7.58667 57.6895 9.592C59.6948 11.576 60.6975 13.976 60.6975 16.792C60.6975 19.608 59.6948 22.0187 57.6895 24.024C55.7055 26.008 53.3055 27 50.4895 27C47.6735 27 45.2628 26.008 43.2575 24.024C41.2735 22.0187 40.2815 19.608 40.2815 16.792C40.2815 13.976 41.2735 11.576 43.2575 9.592ZM55.2895 11.992C53.9668 10.648 52.3668 9.976 50.4895 9.976C48.6122 9.976 47.0015 10.648 45.6575 11.992C44.3348 13.3147 43.6735 14.9147 43.6735 16.792C43.6735 18.6693 44.3348 20.2693 45.6575 21.592C47.0015 22.9147 48.6122 23.576 50.4895 23.576C52.3668 23.576 53.9668 22.9147 55.2895 21.592C56.6335 20.2693 57.3055 18.6693 57.3055 16.792C57.3055 14.9147 56.6335 13.3147 55.2895 11.992Z" fill="white"/>
<path d="M72.2023 6.584C74.1009 6.584 75.8503 7.07467 77.4503 8.056C79.0716 9.016 80.3196 10.296 81.1943 11.896H76.9703C75.6476 10.616 74.0583 9.976 72.2023 9.976C70.3249 9.976 68.7249 10.648 67.4023 11.992C66.0796 13.3147 65.4183 14.9147 65.4183 16.792C65.4183 18.6693 66.0796 20.2693 67.4023 21.592C68.7249 22.9147 70.3249 23.576 72.2023 23.576C73.3116 23.576 74.3463 23.3307 75.3063 22.84C76.2663 22.3493 77.0556 21.6773 77.6743 20.824H81.5783C80.7889 22.6587 79.5409 24.152 77.8343 25.304C76.1489 26.4347 74.2716 27 72.2023 27C69.3863 27 66.9863 26.008 65.0023 24.024C63.0183 22.0187 62.0263 19.608 62.0263 16.792C62.0263 13.976 63.0183 11.576 65.0023 9.592C66.9863 7.58667 69.3863 6.584 72.2023 6.584ZM102.936 16.792V27H99.5435V24.376C97.6235 26.1253 95.3515 27 92.7275 27C89.9115 27 87.5008 26.008 85.4955 24.024C83.5115 22.0187 82.5195 19.608 82.5195 16.792C82.5195 13.976 83.5115 11.576 85.4955 9.592C87.5008 7.58667 89.9115 6.584 92.7275 6.584C95.5435 6.584 97.9435 7.58667 99.9275 9.592C101.933 11.576 102.936 13.976 102.936 16.792ZM92.7275 9.976C90.8502 9.976 89.2502 10.648 87.9275 11.992C86.6048 13.3147 85.9435 14.9147 85.9435 16.792C85.9435 18.6693 86.6048 20.2693 87.9275 21.592C89.2502 22.9147 90.8502 23.576 92.7275 23.576C94.6048 23.576 96.2048 22.9147 97.5275 21.592C98.8715 20.2693 99.5435 18.6693 99.5435 16.792C99.5435 14.8933 98.8822 13.2827 97.5595 11.96C96.2368 10.6373 94.6262 9.976 92.7275 9.976ZM106.969 7.704V7.736C106.969 5.85866 107.63 4.25867 108.953 2.936C110.297 1.592 111.907 0.919998 113.785 0.919998H114.905V4.312H113.785C112.846 4.312 112.046 4.64267 111.385 5.304C110.723 5.96533 110.393 6.76533 110.393 7.704H114.905V11.096H110.393V27H106.969V11.096H104.697V7.704H106.969ZM118.386 9.592C120.391 7.58667 122.802 6.584 125.618 6.584C128.434 6.584 130.834 7.58667 132.818 9.592C134.823 11.576 135.826 13.976 135.826 16.792C135.826 17.3253 135.773 17.8907 135.666 18.488H119.026C119.41 19.9813 120.21 21.208 121.426 22.168C122.642 23.1067 124.039 23.576 125.618 23.576C127.602 23.576 129.255 22.8613 130.578 21.432H134.706C133.853 23.1173 132.605 24.472 130.962 25.496C129.341 26.4987 127.559 27 125.618 27C122.802 27 120.391 26.008 118.386 24.024C116.402 22.0187 115.41 19.608 115.41 16.792C115.41 13.976 116.402 11.576 118.386 9.592ZM119.026 15.096H132.21C131.847 13.6027 131.047 12.376 129.81 11.416C128.594 10.456 127.197 9.976 125.618 9.976C124.039 9.976 122.631 10.456 121.394 11.416C120.178 12.376 119.389 13.6027 119.026 15.096Z" fill="#F47356"/>
</svg>
