<svg width="19" height="19" viewBox="0 0 19 19" fill="none" xmlns="http://www.w3.org/2000/svg">
<path d="M6.87906 16.0314H3.5625C3.40503 16.0314 3.25401 15.9688 3.14266 15.8575C3.03131 15.7462 2.96875 15.5951 2.96875 15.4377V12.1211C2.96875 12.0431 2.98411 11.9659 3.01395 11.8939C3.04379 11.8218 3.08752 11.7564 3.14266 11.7012L12.0489 2.795C12.1603 2.68365 12.3113 2.62109 12.4688 2.62109C12.6262 2.62109 12.7772 2.68365 12.8886 2.795L16.2052 6.11156C16.3165 6.22291 16.3791 6.37393 16.3791 6.5314C16.3791 6.68888 16.3165 6.8399 16.2052 6.95125L7.29891 15.8575C7.24377 15.9126 7.17832 15.9564 7.10628 15.9862C7.03424 16.016 6.95703 16.0314 6.87906 16.0314Z" stroke="black" stroke-linecap="round" stroke-linejoin="round"/>
<path d="M10.0938 4.75L14.25 8.90625" stroke="black" stroke-linecap="round" stroke-linejoin="round"/>
<path d="M7.08714 15.9931L3.00659 11.9126" stroke="black" stroke-linecap="round" stroke-linejoin="round"/>
</svg>
