<svg width="44" height="44" viewBox="0 0 44 44" fill="none" xmlns="http://www.w3.org/2000/svg">
<circle cx="22" cy="22" r="22" fill="#00315D"/>
<path d="M19 31H25" stroke="#FEFEFE" stroke-width="1.5" stroke-linecap="round" stroke-linejoin="round"/>
<path d="M15.269 19.7499C15.2678 18.8605 15.4426 17.9795 15.7834 17.1579C16.1242 16.3363 16.6243 15.5903 17.2548 14.9628C17.8853 14.3353 18.6337 13.8389 19.4569 13.502C20.2802 13.1652 21.1619 12.9946 22.0514 13.0001C25.763 13.0277 28.7317 16.1128 28.7317 19.8347V20.4999C28.7317 23.8577 29.4342 25.8061 30.0529 26.871C30.1196 26.9848 30.1551 27.1142 30.1558 27.246C30.1565 27.3779 30.1224 27.5076 30.0569 27.6221C29.9915 27.7366 29.8971 27.8318 29.7831 27.8982C29.6691 27.9645 29.5397 27.9996 29.4078 27.9999H14.5922C14.4603 27.9996 14.3309 27.9645 14.2169 27.8981C14.1029 27.8318 14.0084 27.7366 13.943 27.622C13.8776 27.5075 13.8435 27.3778 13.8442 27.2459C13.845 27.114 13.8805 26.9846 13.9472 26.8709C14.5662 25.8059 15.269 23.8575 15.269 20.4999L15.269 19.7499Z" stroke="#FEFEFE" stroke-width="1.5" stroke-linecap="round" stroke-linejoin="round"/>
</svg>
